<?xml version="1.0" standalone="no"?>
<!DOCTYPE svg PUBLIC "-//W3C//DTD SVG 20010904//EN"
 "http://www.w3.org/TR/2001/REC-SVG-20010904/DTD/svg10.dtd">
<svg version="1.0" xmlns="http://www.w3.org/2000/svg"
 width="512.000000pt" height="512.000000pt" viewBox="0 0 512.000000 512.000000"
 preserveAspectRatio="xMidYMid meet">

<g transform="translate(0.000000,512.000000) scale(0.100000,-0.100000)"
fill="#000000" stroke="none">
<path d="M0 2560 l0 -2560 2560 0 2560 0 0 2560 0 2560 -2560 0 -2560 0 0
-2560z m3422 1151 c87 -22 173 -63 200 -95 36 -43 76 -122 88 -176 7 -33 10
-109 8 -190 -4 -157 -16 -193 -94 -273 l-47 -48 36 -30 c20 -16 39 -39 42 -50
4 -12 16 -30 27 -41 18 -18 20 -31 17 -137 -3 -80 0 -122 8 -132 7 -8 12 -53
12 -112 1 -82 -2 -97 -15 -97 -11 0 -13 -6 -9 -20 9 -29 -42 -135 -82 -170
-73 -64 -176 -88 -438 -99 -108 -5 -191 -5 -193 0 -2 5 -60 9 -128 9 -81 0
-124 4 -124 11 0 5 -4 8 -9 5 -5 -3 -12 36 -16 87 -8 97 -10 276 -8 747 0 19
0 152 0 295 0 143 0 276 1 295 0 67 14 175 25 202 12 27 12 27 127 31 375 10
496 7 572 -12z m859 -26 c24 8 215 -11 274 -27 22 -5 53 -21 68 -34 16 -13 34
-24 40 -24 13 0 107 -98 107 -111 0 -5 7 -9 15 -9 8 0 15 -9 15 -20 0 -11 10
-38 22 -61 12 -24 21 -61 22 -90 1 -33 5 -49 14 -49 10 0 12 -8 7 -31 -5 -23
-4 -30 5 -24 8 5 10 -2 5 -27 -3 -18 -7 -190 -9 -383 -4 -389 -8 -419 -72
-552 -40 -85 -97 -136 -203 -184 -52 -24 -80 -30 -134 -30 -38 0 -71 2 -75 5
-3 3 -10 2 -16 -3 -21 -17 -260 23 -314 53 -15 8 -42 21 -60 30 -18 8 -35 23
-39 33 -9 24 -29 44 -37 36 -3 -3 -9 3 -12 13 -4 10 -16 31 -26 47 -11 15 -16
27 -12 27 4 0 -2 11 -15 24 -12 12 -26 45 -31 72 -4 27 -13 76 -19 109 -7 38
-9 197 -7 430 3 344 5 376 25 450 12 44 37 104 54 134 43 72 131 145 199 164
29 9 76 22 103 30 32 9 56 11 68 5 10 -5 27 -6 38 -3z m-1880 -81 c27 -26 29
-26 63 -10 23 11 61 16 115 16 l81 0 -1 -180 0 -180 -27 -1 c-15 -1 -66 0
-114 1 l-88 2 0 -57 c0 -31 -5 -65 -10 -76 -8 -14 -7 -19 1 -19 7 0 9 -3 6 -6
-3 -4 -2 -14 3 -23 11 -21 -6 -102 -23 -113 -9 -6 -8 -12 5 -21 12 -10 17 -32
18 -92 3 -115 -9 -208 -25 -195 -10 9 -13 -6 -14 -69 -1 -82 11 -123 59 -201
l22 -35 -28 33 c-16 18 -32 32 -35 32 -4 0 -9 -17 -13 -38 -3 -22 -16 -48 -31
-62 -36 -34 -33 -60 6 -60 30 0 30 -1 23 -33 -5 -17 -7 -48 -6 -67 3 -56 -6
-77 -43 -99 l-35 -20 0 25 c0 25 -1 26 -52 19 -29 -4 -62 -9 -73 -12 -64 -15
-116 -15 -139 0 -41 27 -47 84 -46 442 0 411 0 392 -3 440 -2 22 0 53 5 69 4
16 3 37 -2 47 -7 11 -7 20 0 24 5 3 6 13 3 21 -6 16 -7 32 -11 110 l-2 36 -67
-6 c-38 -4 -94 -9 -127 -12 -42 -5 -57 -3 -52 5 4 6 7 95 6 197 0 167 1 186
16 180 8 -3 144 -6 301 -6 277 0 285 -1 280 -19 -3 -14 -1 -18 10 -14 10 4 13
14 9 29 -8 31 1 30 35 -2z m-1643 -148 c29 -78 52 -149 52 -158 0 -10 4 -18 9
-18 5 0 14 -15 21 -32 7 -18 18 -46 25 -63 7 -16 18 -48 25 -70 7 -22 16 -44
20 -50 4 -5 13 -28 20 -50 7 -22 21 -56 31 -75 11 -19 19 -40 19 -47 0 -7 3
-13 8 -13 4 0 27 69 52 153 24 83 59 182 77 219 18 36 33 73 33 80 0 8 11 36
24 64 14 27 29 68 35 91 20 74 38 87 126 91 42 3 127 1 189 -3 l112 -7 -2
-114 c-2 -83 -6 -121 -17 -138 -14 -21 -14 -24 4 -39 18 -16 19 -38 19 -631
l0 -614 -22 -6 c-38 -10 -193 -7 -204 4 -8 8 -19 8 -38 0 -15 -5 -48 -10 -73
-10 l-45 0 5 158 c3 86 9 236 12 332 4 96 6 203 6 238 -2 67 11 102 35 102 11
0 14 6 10 16 -3 9 -6 20 -6 25 0 5 -7 9 -15 9 -16 0 -45 -57 -59 -115 -4 -16
-27 -71 -52 -121 -24 -50 -44 -97 -44 -103 0 -7 -16 -42 -35 -78 -20 -37 -38
-84 -41 -105 l-7 -38 -86 0 -87 0 -22 53 c-12 29 -22 57 -22 62 0 6 -13 35
-30 66 -16 31 -27 59 -24 62 3 3 -1 18 -10 34 -9 15 -32 66 -51 113 l-35 85 6
-130 c3 -71 6 -230 7 -353 2 -189 0 -225 -13 -235 -8 -7 -20 -24 -27 -38 -15
-34 -29 -36 -212 -25 l-154 9 7 104 7 103 -38 1 -38 1 35 14 35 15 -3 617 c-2
339 0 636 3 659 l6 42 193 -1 192 -1 52 -141z m1162 -1591 l0 -65 26 12 c24
11 29 9 50 -15 20 -23 24 -39 24 -88 0 -51 -4 -64 -25 -85 -14 -14 -30 -22
-37 -18 -6 4 -31 6 -55 5 l-43 -1 0 160 0 160 30 0 30 0 0 -65z m321 -27 c0
-93 0 -93 16 -60 14 27 22 32 50 32 l34 0 -25 -42 -24 -41 24 -55 c13 -30 24
-56 24 -59 0 -2 -14 -3 -31 -1 -27 3 -34 10 -50 48 l-18 45 0 -47 c-1 -46 -2
-48 -31 -48 l-30 0 0 160 0 160 30 0 30 0 1 -92z m-637 40 c8 -14 7 -21 -5
-33 -28 -29 -73 11 -48 42 15 17 38 13 53 -9z m514 -9 c4 -30 -22 -46 -44 -28
-15 12 -19 41 -7 53 16 16 48 1 51 -25z m831 17 c9 -11 10 -20 1 -36 -13 -24
-38 -23 -53 1 -23 37 25 68 52 35z m965 -8 c8 -14 7 -21 -6 -34 -30 -30 -75 9
-48 42 16 18 39 15 54 -8z m-2644 -38 c0 -16 5 -30 10 -30 6 0 10 -9 10 -20 0
-11 -4 -20 -10 -20 -6 0 -10 -33 -10 -80 l0 -80 -30 0 -30 0 0 80 c0 47 -4 80
-10 80 -5 0 -10 9 -10 20 0 11 5 20 10 20 6 0 10 14 10 30 0 27 3 30 30 30 27
0 30 -3 30 -30z m2190 0 c0 -16 5 -30 10 -30 6 0 10 -9 10 -20 0 -11 -4 -20
-10 -20 -6 0 -10 -33 -10 -80 l0 -80 -30 0 -30 0 0 80 c0 47 -4 80 -10 80 -5
0 -10 9 -10 20 0 11 5 20 10 20 6 0 10 14 10 30 0 27 3 30 30 30 27 0 30 -3
30 -30z m-2996 -35 c14 -14 18 -14 40 0 19 13 29 14 45 5 19 -10 21 -20 21
-105 l0 -95 -30 0 -30 0 0 75 c0 60 -3 75 -15 75 -12 0 -15 -15 -15 -75 l0
-75 -30 0 -30 0 0 75 c0 57 -3 75 -14 75 -20 0 -26 -23 -26 -91 0 -56 -1 -59
-25 -59 l-25 0 0 100 0 100 25 0 c14 0 25 -5 25 -11 0 -5 10 -3 22 5 28 20 43
20 62 1z m251 9 c41 -16 60 -128 29 -172 -63 -90 -175 -7 -144 107 15 58 63
85 115 65z m435 -4 c11 -7 16 -34 18 -105 l4 -95 -31 0 -31 0 0 76 c0 66 -2
75 -17 72 -15 -3 -19 -16 -21 -76 -3 -69 -4 -72 -27 -72 -25 0 -25 0 -25 100
l0 100 25 0 c14 0 25 -5 25 -11 0 -5 10 -3 22 5 26 18 37 19 58 6z m262 -7
c11 -9 18 -11 18 -5 0 7 11 12 25 12 l25 0 0 -100 0 -100 -25 0 c-14 0 -25 5
-25 11 0 6 -9 4 -21 -5 -12 -8 -29 -12 -38 -9 -31 11 -41 36 -41 105 0 55 4
72 20 88 24 24 38 25 62 3z m382 1 c12 -12 16 -37 16 -105 l0 -89 -30 0 -30 0
0 75 c0 59 -3 75 -15 75 -17 0 -29 -53 -23 -110 3 -38 2 -40 -24 -40 l-28 0 0
100 0 100 25 0 c14 0 25 -5 25 -11 0 -5 10 -3 22 5 28 20 43 20 62 0z m661 10
c22 -9 45 -57 45 -94 0 -30 0 -30 -55 -30 -57 0 -67 -8 -39 -31 12 -10 20 -10
35 -1 21 13 59 16 59 5 -1 -16 -28 -43 -53 -52 -57 -22 -107 24 -107 97 0 86
49 131 115 106z m218 -14 c53 -42 44 -155 -13 -185 -84 -44 -155 68 -105 165
23 45 75 54 118 20z m187 -9 c0 -20 -6 -30 -20 -34 -18 -5 -20 -14 -20 -76 l0
-71 -30 0 -30 0 0 100 0 100 25 0 c14 0 25 -5 25 -12 0 -8 6 -6 17 5 25 24 33
21 33 -12z m265 4 c18 -17 25 -35 25 -64 l0 -40 -55 -3 c-54 -3 -55 -4 -41
-23 13 -17 18 -18 35 -7 24 14 61 16 61 3 0 -5 -8 -19 -19 -32 -27 -34 -86
-32 -117 5 -39 44 -26 161 18 179 32 13 70 6 93 -18z m215 15 c11 -7 16 -34
18 -105 l4 -95 -31 0 -30 0 -3 73 c-2 56 -6 72 -18 72 -12 0 -16 -16 -18 -72
l-3 -73 -29 0 -30 0 0 100 0 100 30 0 c17 0 30 -5 30 -11 0 -5 10 -3 22 5 26
18 37 19 58 6z m297 -5 c20 -14 43 -69 43 -102 0 -9 -18 -13 -55 -13 -43 0
-55 -3 -55 -15 0 -20 28 -31 43 -16 15 15 57 14 57 -2 0 -8 -8 -21 -17 -29
-69 -60 -152 -1 -140 99 8 78 70 116 124 78z m193 -15 c0 -23 -5 -30 -19 -30
-20 0 -31 -39 -31 -112 0 -34 -3 -38 -25 -38 l-25 0 0 100 0 100 25 0 c14 0
25 -5 25 -11 0 -6 7 -3 16 5 23 24 34 19 34 -14z m280 20 c11 -7 16 -34 18
-105 l4 -95 -31 0 -31 0 0 76 c0 66 -2 75 -17 72 -15 -3 -19 -16 -21 -76 l-3
-72 -29 0 -30 0 0 100 0 100 30 0 c17 0 30 -5 30 -11 0 -5 10 -3 22 5 26 18
37 19 58 6z m144 -6 c9 -8 16 -11 16 -5 0 6 11 11 25 11 l25 0 0 -126 c0 -69
-5 -134 -10 -144 -13 -25 -71 -36 -101 -19 -29 14 -39 28 -39 52 0 22 39 23
55 0 19 -25 45 -9 45 28 0 31 0 32 -20 14 -30 -28 -66 -7 -80 46 -26 97 32
196 84 143z m306 6 c22 -14 -1 -46 -29 -42 -30 5 -26 -13 9 -38 24 -17 30 -29
30 -59 0 -46 -19 -65 -66 -65 -44 0 -60 15 -45 43 10 17 16 19 31 11 33 -18
30 6 -5 40 -40 39 -44 71 -15 100 21 21 65 26 90 10z m188 -13 c11 -12 24 -41
28 -65 l7 -42 -57 0 c-44 0 -56 -3 -56 -15 0 -20 28 -31 43 -16 15 15 57 14
57 -2 0 -17 -28 -43 -56 -51 -59 -18 -111 49 -101 129 10 74 89 111 135 62z
m-3878 -54 c0 -38 4 -74 9 -82 18 -29 31 2 31 75 l0 74 30 0 30 0 0 -69 c0
-85 -12 -118 -46 -131 -32 -13 -89 3 -98 26 -3 9 -6 51 -6 95 0 78 0 79 25 79
24 0 25 -2 25 -67z m740 -33 l0 -100 -30 0 -30 0 0 100 0 100 30 0 30 0 0
-100z m510 0 l0 -100 -30 0 -30 0 0 100 0 100 30 0 30 0 0 -100z m830 0 l0
-100 -30 0 -30 0 0 100 0 100 30 0 30 0 0 -100z m970 0 l0 -100 -30 0 -30 0 0
100 0 100 30 0 30 0 0 -100z m498 -66 c4 -36 -18 -50 -49 -34 -36 20 -15 74
26 68 14 -2 21 -12 23 -34z"/>
<path d="M3145 3362 c-18 -13 -34 -69 -22 -81 28 -28 -49 -87 -84 -65 -7 4
-10 2 -7 -6 5 -17 36 -22 59 -9 15 8 19 4 25 -26 3 -19 3 -42 0 -51 -4 -11 -2
-15 8 -11 7 3 18 1 24 -5 6 -6 22 -6 48 1 21 6 40 8 43 5 3 -2 13 10 23 28 9
18 17 28 18 21 0 -6 9 -9 20 -6 24 6 24 6 6 46 -8 18 -22 56 -31 85 -12 38
-24 56 -45 67 -31 16 -69 19 -85 7z"/>
<path d="M3155 2744 c-6 -2 -9 -33 -7 -77 2 -41 -1 -85 -8 -102 -11 -27 -13
-49 -11 -135 1 -28 3 -29 39 -25 20 2 45 4 54 4 10 1 27 19 39 43 18 36 20 51
14 112 -9 101 -24 154 -48 171 -21 14 -51 18 -72 9z"/>
<path d="M4273 3295 c-10 -7 -18 -46 -24 -120 -6 -61 -14 -124 -18 -141 -4
-16 -4 -41 2 -55 5 -14 6 -89 2 -184 -8 -185 -8 -161 6 -249 16 -98 39 -133
89 -138 21 -2 46 2 54 8 29 20 38 107 40 374 3 301 -4 419 -29 472 -16 33 -22
37 -63 40 -24 2 -51 -1 -59 -7z"/>
<path d="M4770 3254 c0 -8 5 -12 10 -9 6 4 8 11 5 16 -9 14 -15 11 -15 -7z"/>
<path d="M3870 2482 c0 -22 7 -35 23 -43 19 -11 20 -10 9 3 -7 9 -10 22 -7 30
3 8 -1 21 -10 28 -13 11 -15 8 -15 -18z"/>
<path d="M2320 2160 c0 -5 5 -10 10 -10 6 0 10 5 10 10 0 6 -4 10 -10 10 -5 0
-10 -4 -10 -10z"/>
<path d="M2250 2143 c0 -5 14 -16 30 -25 29 -16 30 -16 30 1 0 19 -18 31 -46
31 -8 0 -14 -3 -14 -7z"/>
<path d="M1562 3398 c3 -7 12 -14 21 -16 12 -2 15 1 11 12 -7 19 -38 22 -32 4z"/>
<path d="M1505 3040 c-3 -5 -1 -10 4 -10 6 0 11 5 11 10 0 6 -2 10 -4 10 -3 0
-8 -4 -11 -10z"/>
<path d="M367 2220 c3 -11 9 -17 14 -15 10 7 1 35 -11 35 -5 0 -6 -9 -3 -20z"/>
<path d="M1924 1757 c-3 -8 -4 -32 -2 -53 2 -28 8 -40 21 -42 16 -3 18 3 15
49 -3 51 -22 77 -34 46z"/>
<path d="M662 1758 c-16 -16 -15 -83 2 -97 32 -27 60 44 36 90 -12 22 -21 24
-38 7z"/>
<path d="M1386 1754 c-14 -37 -3 -94 19 -94 15 0 25 22 25 55 0 33 -10 55 -25
55 -7 0 -16 -7 -19 -16z"/>
<path d="M2396 1755 c-9 -25 -9 -25 25 -25 24 0 30 4 27 18 -4 23 -44 28 -52
7z"/>
<path d="M2599 1743 c-18 -48 9 -105 38 -81 16 13 17 80 1 96 -18 18 -27 15
-39 -15z"/>
<path d="M3050 1751 c-10 -19 -8 -21 20 -21 25 0 31 4 28 17 -5 26 -35 28 -48
4z"/>
<path d="M3577 1764 c-16 -16 -6 -34 19 -34 19 0 25 5 22 17 -3 19 -29 29 -41
17z"/>
<path d="M4226 1754 c-10 -27 -7 -69 8 -89 13 -18 14 -18 25 3 20 37 11 102
-14 102 -7 0 -16 -7 -19 -16z"/>
<path d="M4677 1763 c-17 -16 -5 -33 23 -33 28 0 30 2 20 20 -11 20 -31 26
-43 13z"/>
</g>
</svg>
