<?xml version="1.0" standalone="no"?>
<!DOCTYPE svg PUBLIC "-//W3C//DTD SVG 20010904//EN"
 "http://www.w3.org/TR/2001/REC-SVG-20010904/DTD/svg10.dtd">
<svg version="1.0" xmlns="http://www.w3.org/2000/svg"
 width="1440.000000pt" height="1440.000000pt" viewBox="0 0 1440.000000 1440.000000"
 preserveAspectRatio="xMidYMid meet">
<metadata>
Created by potrace 1.14, written by Peter Selinger 2001-2017
</metadata>
<g transform="translate(0.000000,1440.000000) scale(0.100000,-0.100000)"
fill="#000000" stroke="none">
<path d="M0 7200 l0 -7200 7200 0 7200 0 0 7200 0 7200 -7200 0 -7200 0 0
-7200z m9010 3290 c449 -10 476 -13 685 -73 115 -34 329 -125 407 -173 38 -25
158 -166 185 -218 8 -17 24 -40 34 -51 26 -28 75 -152 89 -222 6 -32 20 -84
31 -116 17 -49 19 -74 15 -175 -3 -64 -4 -137 -3 -162 1 -25 2 -137 2 -250 0
-204 0 -206 -33 -315 -39 -125 -97 -222 -174 -287 -25 -22 -52 -53 -59 -69
-14 -35 -104 -117 -137 -125 -18 -5 -20 -9 -11 -20 6 -8 16 -14 22 -14 5 0 41
-24 79 -52 69 -53 139 -145 154 -202 3 -14 22 -37 41 -52 68 -52 88 -151 66
-339 -7 -66 -11 -141 -8 -167 3 -25 -2 -86 -10 -135 -15 -82 -15 -89 2 -98 61
-36 75 -78 62 -194 -5 -45 -5 -81 1 -92 13 -23 13 -339 1 -339 -5 0 -22 5 -37
10 -15 6 -29 9 -31 6 -2 -2 1 -32 7 -66 14 -76 9 -90 -77 -267 -55 -111 -74
-141 -126 -190 -79 -75 -140 -113 -259 -163 -84 -35 -133 -46 -394 -91 l-299
-51 -415 -7 c-414 -6 -415 -6 -442 15 -25 20 -43 22 -244 29 -151 5 -227 4
-254 -4 -20 -6 -76 -11 -124 -11 l-86 0 6 26 c6 24 5 26 -25 22 l-32 -3 -3
210 c-2 162 -6 223 -19 265 -24 76 -24 692 -1 924 11 112 12 166 5 189 -14 46
-18 923 -4 963 7 21 8 99 1 265 -8 175 -7 260 2 336 6 56 9 110 6 120 -3 10
-10 201 -16 424 -11 399 -11 406 9 460 18 46 21 77 21 205 l0 152 40 39 c36
36 39 43 33 78 l-6 38 54 -6 c30 -4 75 -7 102 -7 40 0 47 -3 47 -20 0 -11 4
-20 9 -20 5 0 13 9 16 20 6 19 15 20 211 20 197 0 204 1 204 20 0 19 6 20 133
19 72 0 319 -4 547 -9z m2902 -109 c16 -23 134 -34 146 -14 11 18 140 18 182
0 20 -8 135 -24 275 -36 218 -20 249 -26 342 -58 90 -31 108 -42 148 -84 37
-39 56 -52 94 -60 35 -7 63 -23 102 -58 52 -47 53 -49 37 -68 -24 -26 -23 -33
7 -33 33 0 88 -28 80 -40 -4 -6 5 -14 20 -20 25 -9 65 -81 65 -116 0 -10 13
-14 45 -14 49 0 49 0 36 -69 -8 -42 -7 -46 33 -96 76 -92 137 -365 93 -413
-25 -28 -21 -32 29 -32 l46 0 -7 -52 c-3 -29 -9 -66 -12 -82 -5 -27 -3 -28 22
-24 25 5 27 3 22 -21 -50 -249 -51 -258 -39 -312 17 -80 29 -309 17 -319 -7
-5 -8 -148 -3 -417 4 -249 3 -425 -3 -452 -5 -24 -7 -82 -3 -130 8 -119 -20
-460 -52 -616 -35 -171 -128 -411 -219 -562 -67 -111 -69 -112 -196 -207 -140
-104 -163 -117 -349 -199 -148 -65 -239 -80 -417 -70 -92 5 -116 9 -129 24
-22 24 -31 24 -39 -1 -4 -11 -17 -28 -30 -36 -22 -15 -29 -14 -82 4 -32 11
-94 23 -138 26 -125 11 -313 36 -380 51 -148 33 -287 83 -318 113 -18 17 -68
49 -113 71 -104 52 -122 71 -106 113 l11 30 -40 -6 c-39 -6 -41 -6 -39 21 3
42 2 45 -20 33 -17 -9 -23 -5 -44 27 -14 21 -28 51 -32 67 -4 16 -25 45 -46
64 -34 31 -39 40 -34 66 5 25 0 36 -33 70 -56 58 -86 140 -100 271 -16 148
-18 155 -41 155 -18 0 -20 7 -20 88 0 49 -3 92 -7 95 -10 11 -5 166 8 249 11
70 11 81 -6 117 -16 36 -17 55 -9 178 4 76 7 158 6 183 -10 196 -12 470 -3
508 6 29 6 54 0 71 -6 14 -13 69 -16 122 -5 87 -4 100 14 125 16 23 18 34 10
54 -15 38 -9 251 8 265 10 7 15 52 17 180 4 158 6 181 43 325 48 195 91 298
180 430 68 103 190 227 284 289 20 13 50 36 66 52 33 31 65 42 345 118 102 28
203 58 225 66 52 18 52 18 67 -4z m-5198 -215 c33 -24 74 -58 90 -75 37 -39
66 -39 104 -1 17 17 39 30 50 30 10 0 27 9 37 20 21 23 77 25 333 13 l142 -6
0 -272 c0 -183 -4 -275 -11 -282 -8 -8 -8 -17 0 -31 7 -13 11 -93 11 -211 l0
-190 -57 -17 c-59 -17 -155 -17 -488 3 -98 6 -109 5 -97 -9 9 -11 11 -46 7
-134 -8 -173 -13 -200 -41 -233 l-24 -29 26 -21 c19 -15 24 -26 19 -41 -3 -11
-2 -20 3 -20 5 0 14 -18 20 -41 21 -83 -32 -299 -73 -299 -18 0 -18 -4 -3 -47
10 -28 16 -33 35 -28 22 5 23 3 23 -67 0 -40 7 -132 15 -203 18 -153 12 -232
-22 -299 -21 -42 -24 -57 -18 -110 4 -33 10 -78 15 -98 4 -21 5 -38 1 -38 -3
0 -23 12 -44 26 l-38 26 0 -84 c1 -45 -1 -114 -4 -153 -3 -38 -6 -114 -8 -168
-3 -88 -1 -97 14 -92 15 5 22 -6 38 -62 14 -46 45 -105 96 -182 42 -62 74
-115 72 -117 -2 -2 -34 30 -71 71 -49 54 -74 75 -92 75 -21 0 -24 -5 -24 -33
0 -34 -23 -132 -41 -177 -5 -14 -28 -37 -50 -50 -51 -32 -87 -85 -91 -135 l-3
-40 91 -3 92 -3 -24 -112 c-13 -62 -26 -122 -29 -134 -4 -16 -1 -23 10 -23 21
0 20 -116 -2 -172 -22 -59 -33 -69 -129 -127 l-84 -50 0 74 c0 53 -4 75 -12
75 -7 0 -62 -9 -123 -20 -199 -36 -185 -35 -185 -11 0 19 -3 19 -46 -12 -45
-32 -46 -32 -187 -35 -135 -3 -144 -2 -176 20 -19 13 -43 34 -53 49 -28 38
-89 283 -87 349 5 136 3 557 -3 897 -5 263 -4 380 3 403 8 22 8 35 1 42 -7 7
-5 21 5 46 12 28 13 44 5 72 -18 60 -26 180 -13 180 7 0 10 8 7 18 -3 9 -8 38
-12 65 -5 38 -3 47 9 47 17 0 27 41 27 111 0 35 -7 58 -26 86 -21 32 -25 45
-19 78 4 22 9 73 11 113 2 39 10 101 19 137 16 64 16 66 -4 101 -26 44 -26 55
0 88 16 20 17 26 6 26 -19 0 -27 90 -13 137 6 22 6 45 -2 72 -7 21 -12 77 -12
125 0 71 -3 88 -16 93 -9 3 -165 -6 -346 -21 -182 -15 -332 -25 -335 -22 -3 2
0 29 7 58 9 38 12 191 10 537 l-1 483 38 -8 c21 -5 401 -7 846 -5 677 3 807 1
807 -10 0 -8 -9 -33 -20 -56 -21 -47 -19 -48 45 -32 37 9 43 14 36 28 -14 25
-41 121 -34 121 3 0 33 -20 67 -44z m-5218 -67 c58 -9 86 -8 155 5 58 12 122
16 207 14 l123 -3 141 -375 c77 -206 144 -402 149 -435 8 -44 18 -68 38 -90
38 -39 67 -99 75 -154 4 -24 15 -56 25 -70 11 -15 40 -90 66 -166 25 -77 61
-168 80 -203 18 -34 50 -115 71 -180 23 -70 47 -125 60 -137 13 -12 31 -52 44
-100 12 -44 32 -90 43 -103 l22 -23 12 43 c6 24 34 120 63 213 28 94 59 199
70 235 67 226 102 339 114 365 8 17 24 58 37 93 12 34 43 100 70 147 33 58 56
115 73 183 14 54 33 116 41 137 25 62 78 135 98 135 20 0 22 11 5 28 -18 18
27 172 80 274 44 84 46 87 101 108 56 21 60 21 549 14 l493 -7 -8 -161 c-4
-89 -8 -208 -8 -266 0 -94 2 -105 18 -102 9 2 17 -1 17 -5 0 -13 -52 -148 -61
-157 -5 -6 -9 -17 -9 -26 0 -9 -11 -23 -25 -30 -14 -7 -25 -17 -25 -21 0 -4
22 -29 50 -55 l50 -48 0 -1732 0 -1732 -67 -12 c-48 -8 -138 -9 -306 -4 l-239
7 -23 25 c-23 25 -25 25 -44 8 -27 -25 -118 -43 -252 -49 l-116 -6 -6 354 c-5
241 -3 363 4 382 6 15 20 78 33 138 19 98 20 117 9 175 -17 91 -19 197 -10
485 7 241 25 385 48 385 15 0 10 69 -6 100 -8 16 -19 59 -25 97 -8 58 -7 73
11 112 32 74 66 111 100 111 34 0 34 4 12 73 -21 67 -31 79 -62 75 -33 -4 -66
-53 -92 -140 -12 -38 -27 -75 -35 -83 -8 -7 -14 -22 -14 -33 0 -66 -108 -332
-166 -409 -13 -17 -38 -68 -54 -113 -17 -45 -41 -101 -55 -124 -14 -24 -25
-58 -25 -76 0 -21 -27 -84 -80 -185 -44 -83 -89 -182 -100 -219 -12 -37 -28
-70 -36 -73 -10 -4 -14 -23 -14 -74 l0 -69 -212 6 c-134 4 -225 11 -244 19
-26 11 -35 24 -53 76 -11 35 -21 73 -21 85 0 13 -8 25 -18 28 -16 5 -54 111
-79 216 -3 14 -11 30 -18 35 -7 6 -34 54 -60 108 -45 93 -47 99 -30 117 16 18
15 21 -22 68 -30 37 -68 121 -151 331 -62 154 -112 286 -112 293 0 6 -3 9 -6
6 -3 -3 -5 -135 -4 -294 1 -286 1 -288 32 -417 24 -100 28 -131 18 -137 -10
-6 -10 -22 1 -81 8 -44 9 -74 3 -76 -5 -2 -8 -43 -6 -94 2 -61 -1 -95 -9 -105
-9 -11 -9 -18 -1 -26 9 -9 12 -122 12 -410 l0 -398 -39 -20 c-43 -22 -71 -54
-71 -83 0 -24 -36 -93 -52 -99 -41 -16 -160 -31 -166 -21 -4 7 -126 17 -322
27 -173 9 -352 19 -397 22 l-83 6 0 91 c0 51 5 176 12 279 6 103 10 190 7 192
-3 3 -49 11 -102 18 -53 7 -97 15 -97 18 0 3 21 10 48 17 26 6 73 18 104 27
l57 17 7 56 c4 31 10 50 14 43 8 -13 50 -5 50 10 0 9 -31 22 -46 19 -5 -1 -19
-1 -32 0 l-22 1 3 1748 c2 1437 5 1755 16 1790 l14 43 256 -6 c141 -3 288 -10
327 -16z m3894 -4876 l0 -197 33 32 c66 64 137 63 196 -3 48 -55 64 -129 59
-275 -3 -115 -6 -130 -31 -172 -39 -67 -70 -88 -128 -88 -44 0 -53 4 -89 41
l-40 41 0 -41 0 -42 -72 3 -73 3 -3 448 -2 447 75 0 75 0 0 -197z m902 -80 l3
-278 55 112 55 112 88 1 88 0 -13 -23 c-7 -12 -39 -66 -71 -118 l-58 -96 42
-89 c22 -49 56 -121 74 -161 18 -39 31 -74 27 -77 -11 -12 -149 -6 -160 7 -5
6 -33 71 -62 142 -29 72 -57 134 -62 139 -4 6 -8 -58 -8 -142 l0 -152 -75 0
-75 0 0 450 0 450 75 0 75 0 2 -277z m-1801 168 c20 -20 29 -39 29 -61 0 -42
-47 -90 -88 -90 -61 0 -108 70 -81 122 32 63 93 75 140 29z m1429 14 c58 -30
67 -90 21 -136 -20 -20 -39 -29 -61 -29 -68 0 -112 84 -74 138 28 41 69 50
114 27z m2361 -14 c72 -73 -8 -182 -106 -145 -19 8 -45 55 -45 84 0 28 30 78
49 83 44 12 74 6 102 -22z m2710 0 c80 -81 -35 -201 -125 -130 -21 17 -26 29
-26 65 0 88 89 126 151 65z m-7431 -136 l0 -85 30 0 30 0 0 -60 0 -60 -30 0
-30 0 0 -225 0 -225 -75 0 -75 0 0 225 0 225 -30 0 -30 0 0 60 0 60 30 0 30 0
0 85 0 85 75 0 75 0 0 -85z m6170 0 l0 -85 30 0 30 0 0 -60 0 -60 -30 0 -30 0
0 -225 0 -225 -80 0 -80 0 0 225 0 225 -30 0 -30 0 0 60 0 60 30 0 30 0 0 85
0 85 80 0 80 0 0 -85z m-2292 -67 c67 -17 135 -87 158 -163 25 -88 16 -234
-19 -301 -34 -66 -87 -110 -149 -124 -169 -36 -288 90 -288 304 0 153 73 263
190 287 52 10 57 10 108 -3z m602 -68 l0 -80 -33 0 c-23 0 -41 -8 -58 -26 -23
-25 -24 -30 -27 -220 l-4 -194 -79 0 -79 0 0 285 0 285 74 0 75 0 3 -37 3 -38
22 38 c19 32 67 65 96 67 4 0 7 -36 7 -80z m702 54 c69 -36 115 -134 120 -259
l3 -70 -152 -3 -153 -3 0 -27 c0 -27 22 -69 44 -84 22 -15 76 -8 96 12 11 11
20 25 20 30 0 12 127 13 134 1 3 -5 -7 -33 -22 -62 -40 -77 -101 -113 -191
-113 -98 0 -163 43 -204 134 -29 63 -35 216 -13 294 17 57 68 125 110 148 54
29 153 30 208 2z m1480 -10 c71 -46 104 -119 110 -249 l3 -70 -152 -3 -153 -3
0 -25 c0 -55 37 -93 90 -94 27 0 40 7 59 30 21 27 29 30 80 30 32 0 60 -3 63
-6 3 -3 1 -22 -6 -42 -17 -55 -75 -108 -141 -127 -129 -38 -242 28 -282 164
-22 77 -14 240 15 297 25 50 92 111 129 120 16 3 33 7 38 9 25 10 114 -9 147
-31z m538 -43 l0 -80 -37 -3 c-26 -2 -42 -11 -57 -31 -18 -25 -21 -45 -24
-217 l-4 -190 -79 0 -79 0 0 285 0 285 81 0 81 0 -4 -30 c-6 -38 2 -38 24 0
15 26 64 58 91 60 4 0 7 -36 7 -79z m2061 48 c22 -11 39 -22 39 -24 0 -3 -14
-30 -31 -60 l-30 -54 -39 20 c-31 16 -43 18 -59 9 -30 -15 -26 -45 10 -72 65
-50 121 -103 135 -129 34 -67 6 -185 -54 -228 -68 -48 -194 -47 -255 2 l-29
22 33 57 32 56 44 -21 c51 -25 76 -17 81 26 3 22 -7 34 -65 76 -84 61 -106 96
-107 170 -1 86 48 151 129 172 43 11 122 1 166 -22z m444 20 c101 -28 156
-115 163 -261 l4 -88 -155 0 -155 0 8 -35 c14 -62 36 -85 79 -85 29 0 44 7 64
30 24 27 33 30 85 30 32 0 61 -3 64 -6 12 -11 -24 -79 -60 -117 -92 -95 -261
-80 -334 30 -91 139 -62 394 54 471 60 39 117 49 183 31z m-11990 -14 c17 -9
38 -28 46 -43 7 -15 14 -29 16 -31 1 -2 20 12 42 32 56 50 111 66 157 44 59
-29 64 -53 64 -332 l0 -245 -75 0 -75 0 0 194 c0 235 -8 265 -68 249 -34 -9
-42 -56 -42 -255 l0 -189 -72 3 -73 3 -5 212 c-3 116 -7 214 -10 216 -15 15
-57 16 -75 3 -19 -13 -20 -28 -23 -225 l-3 -211 -75 0 -74 0 0 285 0 285 70 0
70 0 0 -35 c0 -42 6 -43 33 -9 21 28 89 63 120 64 11 0 34 -7 52 -15z m731 -4
c145 -66 183 -347 68 -498 -74 -97 -247 -99 -328 -2 -40 47 -54 79 -67 154 -9
51 -9 84 0 137 18 107 58 171 136 211 42 22 140 21 191 -2z m1196 8 c68 -18
72 -38 76 -326 l4 -253 -81 0 -81 0 0 205 c0 192 -1 206 -20 225 -25 25 -32
25 -61 1 -24 -19 -24 -23 -28 -225 l-3 -206 -74 0 -74 0 0 285 0 285 76 0 76
0 -2 -27 c-3 -45 -2 -46 37 -8 31 30 72 51 108 54 6 1 27 -4 47 -10z m737 -4
c16 -8 40 -28 55 -45 l26 -32 0 36 0 36 75 0 75 0 0 -285 0 -285 -75 0 -75 0
0 40 0 40 -40 -40 c-36 -36 -45 -40 -92 -40 -46 0 -54 4 -88 39 -50 53 -65
110 -65 256 0 136 17 204 63 248 48 46 94 57 141 32z m1081 0 c59 -31 60 -35
60 -317 l0 -258 -75 0 -75 0 0 194 c0 202 -6 240 -37 248 -64 15 -73 -14 -73
-247 l0 -195 -75 0 -75 0 0 285 0 285 70 0 70 0 0 -35 c0 -19 2 -35 5 -35 3 0
19 15 36 34 43 49 118 68 169 41z m1895 -8 c71 -40 112 -130 116 -257 l3 -65
-152 -3 -152 -3 0 -34 c0 -80 95 -121 146 -62 20 24 30 27 84 27 35 0 60 -4
60 -10 0 -17 -30 -73 -54 -98 -56 -62 -169 -81 -253 -43 -176 81 -179 460 -3
549 61 30 150 30 205 -1z m2464 9 c50 -26 54 -50 59 -323 l4 -253 -81 0 -81 0
0 189 c0 215 -7 251 -50 251 -51 0 -55 -15 -58 -237 l-4 -204 -76 3 -77 3 -3
283 -2 282 81 0 81 0 -4 -30 c-5 -35 5 -39 25 -10 36 51 131 74 186 46z m2165
3 c51 -23 56 -55 56 -328 l0 -251 -80 0 -80 0 0 208 c0 114 -4 213 -9 220 -5
8 -21 12 -37 10 -48 -5 -54 -32 -54 -245 l0 -193 -80 0 -80 0 0 285 0 285 75
0 75 0 0 -37 1 -38 27 32 c50 58 126 79 186 52z m397 -7 c15 -9 36 -28 48 -42
l20 -25 1 33 0 32 75 0 75 0 0 -304 c0 -393 -12 -457 -96 -500 -54 -29 -192
-30 -247 -2 -47 23 -87 80 -94 135 l-6 41 72 0 c56 0 71 -3 71 -15 0 -40 78
-72 117 -47 21 13 33 61 33 129 l0 66 -27 -28 c-44 -44 -86 -58 -135 -44 -81
21 -122 99 -134 254 -11 142 35 282 103 319 38 20 92 20 124 -2z m-9491 -200
c0 -220 5 -242 60 -242 57 0 60 11 60 236 l0 204 76 0 76 0 -4 -217 c-3 -199
-5 -222 -25 -266 -29 -63 -78 -86 -183 -87 -175 0 -210 67 -210 398 l0 172 75
0 75 0 0 -198z m2060 -87 l0 -285 -75 0 -75 0 0 285 0 285 75 0 75 0 0 -285z
m1450 0 l0 -285 -75 0 -75 0 0 285 0 285 75 0 75 0 0 -285z m2340 0 l0 -286
-77 3 -78 3 -3 283 -2 282 80 0 80 0 0 -285z m2710 0 l0 -285 -80 0 -80 0 0
285 0 285 80 0 80 0 0 -285z m1407 -120 c47 -54 23 -140 -45 -166 -83 -32
-163 69 -118 150 32 57 121 66 163 16z"/>
<path d="M7966 10286 c6 -16 44 -29 44 -15 0 8 -32 29 -44 29 -3 0 -3 -6 0
-14z"/>
<path d="M8473 10283 c-18 -7 -16 -43 1 -43 13 0 26 20 26 41 0 10 -8 10 -27
2z"/>
<path d="M9030 10205 c7 -8 20 -15 29 -15 13 1 13 3 -3 15 -26 19 -42 19 -26
0z"/>
<path d="M8810 9901 c0 -5 7 -15 16 -22 9 -7 21 -25 26 -39 6 -14 12 -20 15
-13 5 15 -34 83 -48 83 -5 0 -9 -4 -9 -9z"/>
<path d="M8128 9773 c7 -3 16 -2 19 1 4 3 -2 6 -13 5 -11 0 -14 -3 -6 -6z"/>
<path d="M8791 9729 c-24 -23 -23 -33 2 -23 15 5 31 33 24 40 -2 2 -14 -6 -26
-17z"/>
<path d="M8370 9560 c0 -5 7 -10 15 -10 8 0 15 5 15 10 0 6 -7 10 -15 10 -8 0
-15 -4 -15 -10z"/>
<path d="M8000 9516 c0 -19 4 -23 20 -19 11 3 20 14 20 24 0 12 -7 19 -20 19
-14 0 -20 -7 -20 -24z"/>
<path d="M8865 9469 c-16 -10 -38 -19 -47 -19 -14 0 -18 -9 -18 -40 0 -24 -11
-62 -25 -91 l-26 -50 30 -35 c34 -38 34 -44 -15 -121 -35 -54 -38 -56 -154
-82 -59 -14 -60 -14 -60 4 0 8 -9 15 -20 15 -28 0 -25 -11 13 -49 l34 -32 16
23 16 23 0 -22 c1 -28 3 -28 70 -3 29 12 56 19 58 16 11 -11 43 -142 43 -175
0 -19 -7 -42 -16 -52 -13 -14 -13 -22 -4 -39 l12 -22 23 22 24 22 34 -21 c31
-19 41 -20 79 -11 23 5 61 10 84 10 22 0 45 5 52 12 9 9 18 9 37 0 24 -11 26
-10 69 76 26 49 45 78 45 66 1 -31 11 -35 38 -14 19 15 30 17 49 9 14 -5 27
-9 29 -9 1 0 -1 17 -6 38 -5 20 -9 53 -9 73 0 27 -5 38 -22 46 -19 8 -32 39
-68 158 -26 86 -57 166 -75 193 -26 40 -36 48 -74 54 -24 4 -52 15 -61 23 -13
12 -28 14 -53 10 -21 -4 -37 -3 -41 4 -10 15 -26 13 -61 -10z"/>
<path d="M8148 9233 c-20 -5 -24 -28 -6 -39 10 -7 38 20 38 38 0 8 -4 9 -32 1z"/>
<path d="M8400 9230 c0 -5 5 -10 11 -10 5 0 7 5 4 10 -3 6 -8 10 -11 10 -2 0
-4 -4 -4 -10z"/>
<path d="M8390 9030 c0 -5 5 -10 10 -10 6 0 10 5 10 10 0 6 -4 10 -10 10 -5 0
-10 -4 -10 -10z"/>
<path d="M10076 8884 c-9 -23 -8 -24 12 -24 24 0 32 8 25 26 -7 19 -29 18 -37
-2z"/>
<path d="M7870 8710 c-13 -8 -12 -10 3 -10 9 0 17 5 17 10 0 12 -1 12 -20 0z"/>
<path d="M10070 8705 c0 -8 5 -15 10 -15 6 0 10 7 10 15 0 8 -4 15 -10 15 -5
0 -10 -7 -10 -15z"/>
<path d="M9380 8560 c0 -13 18 -22 24 -11 3 5 -1 11 -9 15 -8 3 -15 1 -15 -4z"/>
<path d="M8550 8540 c0 -13 18 -22 24 -11 3 5 -1 11 -9 15 -8 3 -15 1 -15 -4z"/>
<path d="M8690 8440 c0 -5 5 -10 10 -10 6 0 10 5 10 10 0 6 -4 10 -10 10 -5 0
-10 -4 -10 -10z"/>
<path d="M8590 8260 c0 -5 5 -10 11 -10 5 0 7 5 4 10 -3 6 -8 10 -11 10 -2 0
-4 -4 -4 -10z"/>
<path d="M8100 8214 c0 -8 5 -12 10 -9 6 4 8 11 5 16 -9 14 -15 11 -15 -7z"/>
<path d="M8480 8000 c0 -5 5 -10 10 -10 6 0 10 5 10 10 0 6 -4 10 -10 10 -5 0
-10 -4 -10 -10z"/>
<path d="M9910 7976 c0 -8 5 -18 10 -21 6 -3 10 3 10 14 0 12 -4 21 -10 21 -5
0 -10 -6 -10 -14z"/>
<path d="M9015 7950 c-3 -5 -1 -10 4 -10 6 0 11 5 11 10 0 6 -2 10 -4 10 -3 0
-8 -4 -11 -10z"/>
<path d="M8160 7900 c0 -5 5 -10 10 -10 6 0 10 5 10 10 0 6 -4 10 -10 10 -5 0
-10 -4 -10 -10z"/>
<path d="M8440 7875 c-10 -12 -10 -15 3 -15 8 0 20 7 27 15 10 12 10 15 -3 15
-8 0 -20 -7 -27 -15z"/>
<path d="M9366 7855 c-3 -8 -1 -15 4 -15 13 0 22 18 11 24 -5 3 -11 -1 -15 -9z"/>
<path d="M10084 7766 c-10 -8 -15 -18 -11 -22 4 -4 17 2 30 14 24 25 12 30
-19 8z"/>
<path d="M8895 7725 c-5 -2 -22 -6 -36 -9 -15 -3 -29 -14 -32 -23 -2 -10 -8
-25 -11 -34 -5 -11 -1 -18 12 -21 17 -5 20 -19 26 -125 9 -168 -12 -300 -55
-349 -17 -18 -18 -27 -9 -74 5 -29 10 -73 10 -97 0 -41 -1 -44 -22 -37 -22 6
-22 6 -5 -13 18 -21 37 -109 37 -177 0 -32 3 -37 18 -31 37 15 126 45 133 45
5 0 5 -8 2 -17 -5 -12 -2 -15 8 -11 8 3 45 13 82 23 63 17 70 22 94 62 45 78
83 182 83 232 0 25 -7 102 -15 171 -41 322 -59 385 -133 450 -43 38 -48 40
-111 39 -36 0 -70 -2 -76 -4z"/>
<path d="M10031 7714 c0 -11 3 -14 6 -6 3 7 2 16 -1 19 -3 4 -6 -2 -5 -13z"/>
<path d="M9840 7661 c-13 -25 -13 -34 0 -26 16 10 32 45 21 45 -6 0 -15 -9
-21 -19z"/>
<path d="M9405 7550 c-3 -5 3 -10 14 -10 12 0 21 5 21 10 0 6 -6 10 -14 10 -8
0 -18 -4 -21 -10z"/>
<path d="M8395 7489 c-4 -6 -5 -13 -2 -16 7 -7 27 6 27 18 0 12 -17 12 -25 -2z"/>
<path d="M8615 7440 c-3 -5 1 -10 9 -10 9 0 16 5 16 10 0 6 -4 10 -9 10 -6 0
-13 -4 -16 -10z"/>
<path d="M7790 7235 c0 -8 5 -15 10 -15 6 0 10 7 10 15 0 8 -4 15 -10 15 -5 0
-10 -7 -10 -15z"/>
<path d="M9845 7190 c3 -5 12 -7 20 -3 21 7 19 13 -6 13 -11 0 -18 -4 -14 -10z"/>
<path d="M7730 7150 c0 -5 7 -10 15 -10 8 0 15 5 15 10 0 6 -7 10 -15 10 -8 0
-15 -4 -15 -10z"/>
<path d="M7990 6722 c0 -13 23 -32 38 -32 7 0 12 5 10 12 -5 13 -48 31 -48 20z"/>
<path d="M8376 6672 c-3 -6 -1 -14 5 -17 15 -10 25 3 12 16 -7 7 -13 7 -17 1z"/>
<path d="M8820 6355 c0 -20 5 -25 25 -25 20 0 25 5 25 25 0 20 -5 25 -25 25
-20 0 -25 -5 -25 -25z"/>
<path d="M8717 6211 c-3 -11 -3 -22 0 -24 11 -11 43 7 43 24 0 25 -36 25 -43
0z"/>
<path d="M8450 5982 c0 -9 40 -35 46 -29 6 6 -25 37 -37 37 -5 0 -9 -3 -9 -8z"/>
<path d="M7987 5963 c-11 -10 -8 -20 8 -27 10 -4 15 1 15 14 0 20 -11 26 -23
13z"/>
<path d="M11682 10135 c0 -16 2 -22 5 -12 2 9 2 23 0 30 -3 6 -5 -1 -5 -18z"/>
<path d="M11700 10102 c0 -12 19 -26 26 -19 2 2 -2 10 -11 17 -9 8 -15 8 -15
2z"/>
<path d="M12905 9971 c-6 -11 9 -23 19 -14 9 9 7 23 -3 23 -6 0 -12 -4 -16 -9z"/>
<path d="M12895 9750 c-3 -5 -1 -10 4 -10 6 0 11 5 11 10 0 6 -2 10 -4 10 -3
0 -8 -4 -11 -10z"/>
<path d="M12220 9545 c0 -8 5 -15 10 -15 6 0 10 7 10 15 0 8 -4 15 -10 15 -5
0 -10 -7 -10 -15z"/>
<path d="M12060 9310 c-14 -16 -35 -34 -47 -39 -14 -7 -24 -23 -29 -48 -4 -21
-14 -56 -22 -78 -9 -26 -19 -123 -27 -275 -16 -283 -30 -381 -57 -388 -10 -2
-17 -7 -15 -11 50 -91 48 -76 43 -449 -3 -191 -6 -399 -6 -462 0 -75 -5 -125
-14 -145 -12 -27 -11 -35 11 -79 21 -40 27 -74 35 -190 11 -137 12 -143 54
-228 24 -48 44 -94 44 -102 0 -22 23 -26 137 -26 100 0 105 -1 100 -20 -7 -28
17 -25 41 5 11 14 27 25 35 25 24 0 32 20 60 150 20 93 29 178 37 333 11 209
18 247 47 279 14 16 14 18 1 18 -9 0 -19 8 -24 18 -4 9 -10 181 -14 382 -6
296 -4 374 7 412 11 38 12 70 3 160 -6 62 -15 172 -20 243 -13 202 -26 271
-66 355 -20 41 -41 86 -48 100 -11 24 -16 25 -120 28 l-108 3 6 29 c7 39 -10
38 -44 0z"/>
<path d="M12460 9291 c0 -5 7 -14 15 -21 13 -10 15 -9 15 9 0 12 -6 21 -15 21
-8 0 -15 -4 -15 -9z"/>
<path d="M11206 9271 c-3 -4 -18 -7 -33 -5 l-28 4 26 -12 c14 -7 33 -19 42
-26 18 -16 28 -3 20 26 -6 23 -18 29 -27 13z"/>
<path d="M11072 9179 c1 -12 8 -24 15 -26 7 -3 9 3 6 17 -8 29 -25 37 -21 9z"/>
<path d="M13415 9157 c0 -44 0 -44 28 -35 31 11 38 52 10 62 -10 3 -23 8 -28
11 -7 3 -10 -12 -10 -38z"/>
<path d="M13454 9060 c-7 -38 -8 -69 -3 -74 16 -17 20 1 17 70 l-3 69 -11 -65z"/>
<path d="M13378 9103 c7 -3 16 -2 19 1 4 3 -2 6 -13 5 -11 0 -14 -3 -6 -6z"/>
<path d="M12645 9070 c-3 -5 -1 -10 4 -10 6 0 11 5 11 10 0 6 -2 10 -4 10 -3
0 -8 -4 -11 -10z"/>
<path d="M11375 8980 c-3 -5 1 -10 9 -10 9 0 16 5 16 10 0 6 -4 10 -9 10 -6 0
-13 -4 -16 -10z"/>
<path d="M10850 8891 c0 -12 29 -41 40 -41 19 0 22 24 5 37 -22 15 -45 17 -45
4z"/>
<path d="M11360 8663 c0 -32 67 -64 77 -35 3 7 -4 12 -18 12 -12 0 -31 7 -41
17 -10 9 -18 12 -18 6z"/>
<path d="M10880 8630 c0 -5 7 -10 16 -10 8 0 12 5 9 10 -3 6 -10 10 -16 10 -5
0 -9 -4 -9 -10z"/>
<path d="M11155 8470 c3 -5 11 -10 16 -10 6 0 7 5 4 10 -3 6 -11 10 -16 10 -6
0 -7 -4 -4 -10z"/>
<path d="M11362 8134 c3 -17 21 -21 26 -6 1 5 -4 12 -13 16 -11 4 -15 1 -13
-10z"/>
<path d="M12848 8113 c6 -2 18 -2 25 0 6 3 1 5 -13 5 -14 0 -19 -2 -12 -5z"/>
<path d="M11520 7980 c0 -5 5 -10 11 -10 5 0 7 5 4 10 -3 6 -8 10 -11 10 -2 0
-4 -4 -4 -10z"/>
<path d="M12980 7940 c0 -5 5 -10 10 -10 6 0 10 5 10 10 0 6 -4 10 -10 10 -5
0 -10 -4 -10 -10z"/>
<path d="M13200 7690 c0 -5 5 -10 10 -10 6 0 10 5 10 10 0 6 -4 10 -10 10 -5
0 -10 -4 -10 -10z"/>
<path d="M12968 7423 c7 -3 16 -2 19 1 4 3 -2 6 -13 5 -11 0 -14 -3 -6 -6z"/>
<path d="M13450 7200 c0 -15 7 -20 26 -20 32 0 30 31 -3 36 -17 3 -23 -1 -23
-16z"/>
<path d="M12945 7090 c3 -5 13 -10 21 -10 8 0 14 5 14 10 0 6 -9 10 -21 10
-11 0 -17 -4 -14 -10z"/>
<path d="M10886 6999 c-4 -44 -8 -85 -9 -91 -2 -12 61 -51 72 -44 4 3 15 -4
24 -15 9 -10 27 -19 39 -19 24 0 23 1 -40 50 l-43 33 32 33 32 33 -44 50 c-24
27 -47 49 -50 50 -3 1 -9 -35 -13 -80z"/>
<path d="M11650 7030 c0 -5 5 -10 11 -10 5 0 7 5 4 10 -3 6 -8 10 -11 10 -2 0
-4 -4 -4 -10z"/>
<path d="M13260 6900 c0 -11 5 -20 10 -20 6 0 10 9 10 20 0 11 -4 20 -10 20
-5 0 -10 -9 -10 -20z"/>
<path d="M13147 6833 c-14 -13 -6 -33 12 -33 14 0 18 5 14 20 -5 21 -15 25
-26 13z"/>
<path d="M11370 6820 c0 -5 5 -10 10 -10 6 0 10 5 10 10 0 6 -4 10 -10 10 -5
0 -10 -4 -10 -10z"/>
<path d="M11455 6540 c-3 -5 1 -10 9 -10 9 0 16 5 16 10 0 6 -4 10 -9 10 -6 0
-13 -4 -16 -10z"/>
<path d="M11996 6515 c-3 -8 -1 -15 4 -15 6 0 10 7 10 15 0 8 -2 15 -4 15 -2
0 -6 -7 -10 -15z"/>
<path d="M13210 6260 c0 -5 4 -10 9 -10 6 0 13 5 16 10 3 6 -1 10 -9 10 -9 0
-16 -4 -16 -10z"/>
<path d="M11439 6108 c-12 -23 -12 -23 10 -4 23 21 26 26 11 26 -5 0 -15 -10
-21 -22z"/>
<path d="M12180 6086 c0 -10 9 -16 21 -16 24 0 21 23 -4 28 -10 2 -17 -3 -17
-12z"/>
<path d="M12640 5960 c0 -11 6 -20 14 -20 21 0 31 21 15 31 -22 14 -29 11 -29
-11z"/>
<path d="M11930 5904 c0 -8 5 -12 10 -9 6 3 10 10 10 16 0 5 -4 9 -10 9 -5 0
-10 -7 -10 -16z"/>
<path d="M5825 9750 c-3 -5 1 -10 9 -10 8 0 18 5 21 10 3 6 -1 10 -9 10 -8 0
-18 -4 -21 -10z"/>
<path d="M5689 9634 c-12 -14 -11 -16 5 -13 11 2 21 10 24 17 5 17 -13 15 -29
-4z"/>
<path d="M5625 9610 c-3 -5 1 -10 9 -10 9 0 16 5 16 10 0 6 -4 10 -9 10 -6 0
-13 -4 -16 -10z"/>
<path d="M6211 9566 c-8 -9 -11 -19 -7 -23 9 -9 29 13 24 27 -2 8 -8 7 -17 -4z"/>
<path d="M5525 9520 c3 -5 13 -10 21 -10 8 0 12 5 9 10 -3 6 -13 10 -21 10 -8
0 -12 -4 -9 -10z"/>
<path d="M5745 9490 c-8 -13 5 -13 25 0 13 8 13 10 -2 10 -9 0 -20 -4 -23 -10z"/>
<path d="M6220 9455 c0 -8 4 -15 9 -15 5 0 11 7 15 15 3 9 0 15 -9 15 -8 0
-15 -7 -15 -15z"/>
<path d="M6938 9443 c-20 -5 -24 -18 -9 -28 6 -3 15 4 21 15 6 11 9 19 8 19
-2 -1 -11 -3 -20 -6z"/>
<path d="M7170 9285 c0 -14 7 -28 15 -32 22 -8 27 0 19 31 -8 34 -34 34 -34 1z"/>
<path d="M5885 8970 c-3 -5 1 -10 10 -10 9 0 13 5 10 10 -3 6 -8 10 -10 10 -2
0 -7 -4 -10 -10z"/>
<path d="M6160 8970 c0 -5 5 -10 10 -10 6 0 10 5 10 10 0 6 -4 10 -10 10 -5 0
-10 -4 -10 -10z"/>
<path d="M5770 8925 c0 -13 4 -14 20 -5 11 6 20 13 20 15 0 3 -9 5 -20 5 -11
0 -20 -7 -20 -15z"/>
<path d="M5880 8824 c0 -8 5 -12 10 -9 6 3 10 10 10 16 0 5 -4 9 -10 9 -5 0
-10 -7 -10 -16z"/>
<path d="M5772 8788 c-15 -15 -16 -41 0 -36 6 2 18 14 26 26 12 19 12 22 0 22
-8 0 -19 -5 -26 -12z"/>
<path d="M5870 8710 c-8 -5 -12 -11 -9 -14 2 -3 11 -1 19 4 8 5 12 11 9 14 -2
3 -11 1 -19 -4z"/>
<path d="M6457 8663 c-10 -9 -9 -43 1 -43 12 0 32 23 32 37 0 14 -22 18 -33 6z"/>
<path d="M5766 8415 c-3 -8 -1 -15 3 -15 5 0 11 7 15 15 3 8 1 15 -3 15 -5 0
-11 -7 -15 -15z"/>
<path d="M5887 8303 c-4 -3 -7 -11 -7 -17 0 -6 5 -5 12 2 6 6 9 14 7 17 -3 3
-9 2 -12 -2z"/>
<path d="M6060 8200 c0 -5 5 -10 10 -10 6 0 10 5 10 10 0 6 -4 10 -10 10 -5 0
-10 -4 -10 -10z"/>
<path d="M6350 8181 c0 -6 4 -13 10 -16 6 -3 7 1 4 9 -7 18 -14 21 -14 7z"/>
<path d="M6076 8065 c-4 -13 -2 -14 14 -5 23 13 26 20 6 20 -8 0 -16 -7 -20
-15z"/>
<path d="M6535 7920 c-3 -5 -1 -10 4 -10 6 0 11 5 11 10 0 6 -2 10 -4 10 -3 0
-8 -4 -11 -10z"/>
<path d="M5998 7543 c7 -3 16 -2 19 1 4 3 -2 6 -13 5 -11 0 -14 -3 -6 -6z"/>
<path d="M6475 7314 l-30 -13 38 -1 c20 0 37 4 37 9 0 17 -14 19 -45 5z"/>
<path d="M5922 7195 c0 -16 2 -22 5 -12 2 9 2 23 0 30 -3 6 -5 -1 -5 -18z"/>
<path d="M6480 7154 c0 -8 11 -14 25 -14 14 0 25 4 25 9 0 5 -11 11 -25 13
-17 4 -25 1 -25 -8z"/>
<path d="M6100 7050 c0 -5 4 -10 9 -10 6 0 13 5 16 10 3 6 -1 10 -9 10 -9 0
-16 -4 -16 -10z"/>
<path d="M6240 6964 c0 -9 5 -14 12 -12 18 6 21 28 4 28 -9 0 -16 -7 -16 -16z"/>
<path d="M6578 6873 c7 -3 16 -2 19 1 4 3 -2 6 -13 5 -11 0 -14 -3 -6 -6z"/>
<path d="M6155 6860 c-3 -5 -1 -10 4 -10 6 0 11 5 11 10 0 6 -2 10 -4 10 -3 0
-8 -4 -11 -10z"/>
<path d="M5920 6839 c0 -5 5 -7 10 -4 6 3 10 8 10 11 0 2 -4 4 -10 4 -5 0 -10
-5 -10 -11z"/>
<path d="M5941 6516 c-8 -9 -11 -19 -7 -23 9 -9 29 13 24 27 -2 8 -8 7 -17 -4z"/>
<path d="M6536 6116 c-3 -13 -9 -31 -12 -40 -5 -13 1 -16 26 -16 25 0 31 3 26
16 -3 9 -9 27 -12 40 -8 31 -20 31 -28 0z"/>
<path d="M6316 6036 l-38 -12 41 -18 c22 -11 69 -36 103 -57 l63 -39 6 27 c16
70 12 80 -40 97 -57 18 -80 19 -135 2z"/>
<path d="M1354 9810 c4 -19 13 -41 21 -49 13 -13 13 -10 4 25 -14 52 -34 71
-25 24z"/>
<path d="M1400 9690 c0 -5 5 -10 10 -10 6 0 10 5 10 10 0 6 -4 10 -10 10 -5 0
-10 -4 -10 -10z"/>
<path d="M1100 9663 c0 -5 5 -15 10 -23 8 -12 10 -11 10 8 0 12 -4 22 -10 22
-5 0 -10 -3 -10 -7z"/>
<path d="M3575 9590 c-8 -13 4 -32 16 -25 12 8 12 35 0 35 -6 0 -13 -4 -16
-10z"/>
<path d="M3950 9586 c0 -7 9 -16 20 -19 24 -6 28 18 4 27 -22 8 -24 8 -24 -8z"/>
<path d="M4399 9548 c26 -50 30 -53 62 -50 19 2 35 5 37 6 1 2 -7 23 -18 48
-19 43 -21 45 -65 46 l-45 2 29 -52z"/>
<path d="M3960 9399 c0 -5 5 -7 10 -4 6 3 10 8 10 11 0 2 -4 4 -10 4 -5 0 -10
-5 -10 -11z"/>
<path d="M2112 9280 c-10 -16 -10 -20 1 -20 14 0 37 20 37 32 0 16 -25 8 -38
-12z"/>
<path d="M1564 9274 c3 -9 6 -18 6 -20 0 -2 5 -4 10 -4 6 0 10 9 10 20 0 12
-7 20 -16 20 -11 0 -14 -5 -10 -16z"/>
<path d="M1992 9168 c6 -18 28 -21 28 -4 0 9 -7 16 -16 16 -9 0 -14 -5 -12
-12z"/>
<path d="M1860 9002 c0 -12 19 -26 26 -19 2 2 -2 10 -11 17 -9 8 -15 8 -15 2z"/>
<path d="M3766 8953 c-12 -12 -6 -33 9 -33 8 0 15 6 15 14 0 17 -14 28 -24 19z"/>
<path d="M1370 8921 c0 -5 5 -13 10 -16 6 -3 10 -2 10 4 0 5 -4 13 -10 16 -5
3 -10 2 -10 -4z"/>
<path d="M1630 8889 c0 -5 5 -7 10 -4 6 3 10 8 10 11 0 2 -4 4 -10 4 -5 0 -10
-5 -10 -11z"/>
<path d="M1466 8874 c-8 -22 1 -31 16 -16 9 9 9 15 1 23 -7 7 -12 5 -17 -7z"/>
<path d="M1767 8826 c-18 -19 -22 -36 -8 -36 13 0 33 28 29 41 -3 8 -9 6 -21
-5z"/>
<path d="M3585 8710 c-3 -5 -1 -10 4 -10 6 0 11 5 11 10 0 6 -2 10 -4 10 -3 0
-8 -4 -11 -10z"/>
<path d="M4253 8569 c-25 -9 -32 -49 -9 -49 18 0 38 25 34 43 -2 11 -9 12 -25
6z"/>
<path d="M1665 8450 c-3 -5 -1 -10 4 -10 6 0 11 5 11 10 0 6 -2 10 -4 10 -3 0
-8 -4 -11 -10z"/>
<path d="M1940 8380 c0 -5 5 -10 10 -10 6 0 10 5 10 10 0 6 -4 10 -10 10 -5 0
-10 -4 -10 -10z"/>
<path d="M1110 7980 c0 -5 7 -10 16 -10 8 0 12 5 9 10 -3 6 -10 10 -16 10 -5
0 -9 -4 -9 -10z"/>
<path d="M1616 7911 c-9 -14 4 -41 20 -41 8 0 14 10 14 25 0 25 -23 35 -34 16z"/>
<path d="M1775 7890 c3 -5 10 -10 16 -10 5 0 9 5 9 10 0 6 -7 10 -16 10 -8 0
-12 -4 -9 -10z"/>
<path d="M4378 7833 c7 -3 16 -2 19 1 4 3 -2 6 -13 5 -11 0 -14 -3 -6 -6z"/>
<path d="M1774 7798 c-3 -5 2 -11 10 -14 16 -6 36 2 36 14 0 10 -40 10 -46 0z"/>
<path d="M3990 7802 c0 -12 19 -26 26 -19 2 2 -2 10 -11 17 -9 8 -15 8 -15 2z"/>
<path d="M1835 7669 c-11 -17 1 -21 15 -4 8 9 8 15 2 15 -6 0 -14 -5 -17 -11z"/>
<path d="M2387 7605 c-4 -8 -2 -17 4 -21 12 -7 41 15 33 27 -8 14 -31 11 -37
-6z"/>
<path d="M1196 7254 c-9 -33 -5 -37 28 -28 34 8 33 47 0 52 -16 2 -23 -4 -28
-24z"/>
<path d="M1237 7173 c-11 -10 -8 -20 8 -27 10 -4 15 1 15 14 0 20 -11 26 -23
13z"/>
<path d="M3810 7130 c0 -5 9 -14 20 -20 19 -10 20 -10 8 9 -13 22 -28 28 -28
11z"/>
<path d="M2400 7010 c0 -5 7 -10 15 -10 8 0 15 5 15 10 0 6 -7 10 -15 10 -8 0
-15 -4 -15 -10z"/>
<path d="M1513 6398 c13 -20 27 -27 27 -13 0 3 0 12 0 20 0 9 -9 15 -21 15
-20 0 -20 -2 -6 -22z"/>
<path d="M1016 6302 c-7 -11 34 -122 45 -122 5 0 9 5 9 10 0 6 11 10 25 10 14
0 25 5 25 10 0 6 -3 10 -7 10 -5 0 -21 20 -36 45 -27 42 -49 56 -61 37z"/>
<path d="M4368 6136 c-24 -18 -22 -28 4 -24 13 2 24 11 26 21 4 20 -6 21 -30
3z"/>
<path d="M5421 4961 c-37 -37 -42 -223 -7 -276 23 -35 69 -34 93 2 26 39 26
227 0 266 -21 32 -58 36 -86 8z"/>
<path d="M7343 4968 c-33 -16 -57 -96 -51 -173 6 -75 24 -114 60 -134 22 -13
30 -13 51 -2 34 18 49 54 54 131 6 76 -9 142 -39 170 -24 22 -42 24 -75 8z"/>
<path d="M8612 4980 c-25 -11 -52 -65 -52 -105 0 -25 1 -25 86 -25 l86 0 -6
38 c-11 60 -15 67 -45 85 -33 19 -37 19 -69 7z"/>
<path d="M10079 4975 c-28 -15 -49 -60 -49 -101 0 -23 2 -24 86 -24 l86 0 -7
36 c-11 61 -23 84 -50 94 -33 12 -34 12 -66 -5z"/>
<path d="M13183 4980 c-27 -11 -53 -59 -53 -100 l0 -30 78 0 c43 0 81 2 84 5
13 14 -12 91 -37 112 -28 25 -38 27 -72 13z"/>
<path d="M1868 4966 c-45 -34 -60 -152 -33 -244 17 -56 40 -75 83 -70 106 12
104 317 -3 325 -17 2 -38 -3 -47 -11z"/>
<path d="M3912 4967 c-34 -40 -38 -200 -7 -274 12 -27 20 -33 44 -33 43 0 63
35 69 119 9 131 -16 201 -72 201 -13 0 -28 -6 -34 -13z"/>
<path d="M6759 4961 c-23 -23 -29 -39 -29 -70 l0 -41 85 0 c84 0 85 0 85 25 0
38 -25 92 -48 104 -34 18 -62 13 -93 -18z"/>
<path d="M11902 4955 c-56 -71 -27 -305 37 -305 52 0 82 115 62 239 -14 89
-58 118 -99 66z"/>
</g>
</svg>
